# xmcd
#
# Track frame offsets:
#	150
#	13317
#	29778
#	44779
#	60666
#	75102
#	87053
#	103438
#	119391
#	137688
#	150766
#	162776
#	174553
#	191618
#
# Disc length: 2701 seconds
#
# Revision: 1
# Processed by: cddbd v1.5.2PL0 Copyright (c) Steve Scherf et al.
# Submitted via: audiograbber 1.83.01
#
DISCID=b30a8b0e
DTITLE=Chantal Cliche - Plus Vraie Que Nature
DYEAR=2007
DGENRE=Country
TTITLE0=Quand J'écoutais Brunelle(Chantal Cliche-Chantal Cliche)
TTITLE1=Moi J'avais Cru(Paul Daraiche-Paul Daraiche)
TTITLE2=J'ai Le Goût(Chantal Cliche-Chantal Cliche)
TTITLE3=Pardonne-Moi(Chantal Cliche-Chantal Cliche)
TTITLE4=J'ai Bien Changé(Chantal Cliche-Chantal Cliche)
TTITLE5=Qu'il Est Bon D'être Ensemble(Lévis Bouliane-Lévis Bouliane)
TTITLE6=J'ai Tout Essayé(Marie-Josée Denis-Marie-Josée Denis)
TTITLE7=Comme La Première Fois(Chantal Cliche-Chantal Cliche)
TTITLE8=Pauve Coeur(Chantal Cliche-Chantal Cliche)
TTITLE9=Tout Le Plaisir(Chantal Cliche-Chantal Cliche)
TTITLE10=Robe Blanche(Denise Lefebvre-Denise Lefebvre)
TTITLE11=Tiens-Toé D'bout(Caroline Laurendeau-Caroline Laurendeau)
TTITLE12=Elle Est Toujours Là(Chantal Cliche-Chantal Cliche)
TTITLE13=À L'âge De Seize Ans(sous réserves)
EXTD=
EXTT0=
EXTT1=
EXTT2=
EXTT3=
EXTT4=
EXTT5=
EXTT6=
EXTT7=
EXTT8=
EXTT9=
EXTT10=
EXTT11=
EXTT12=
EXTT13=
PLAYORDER=
